<svg xmlns="http://www.w3.org/2000/svg" xmlns:xlink="http://www.w3.org/1999/xlink" viewBox="0 0 1404.52 219.45"><defs><style>.cls-1{fill:#353239;}.cls-2{fill:url(#Gradiente_sem_nome_77);}.cls-3{fill:url(#Gradiente_sem_nome_77-2);}.cls-4{fill:url(#Gradiente_sem_nome_77-3);}.cls-5{fill:url(#Gradiente_sem_nome_77-4);}.cls-6{fill:url(#Gradiente_sem_nome_77-5);}.cls-7{fill:url(#Gradiente_sem_nome_77-6);}.cls-8{fill:url(#Gradiente_sem_nome_77-7);}.cls-9{fill:url(#Gradiente_sem_nome_77-8);}</style><linearGradient id="Gradiente_sem_nome_77" x1="559.04" y1="217.3" x2="559.04" y2="37.1" gradientUnits="userSpaceOnUse"><stop offset="0.09" stop-color="#7e2f33"/><stop offset="0.23" stop-color="#862c31"/><stop offset="0.45" stop-color="#9b232a"/><stop offset="0.7" stop-color="#bd161f"/><stop offset="0.95" stop-color="#e30613"/></linearGradient><linearGradient id="Gradiente_sem_nome_77-2" x1="1330.72" y1="217.51" x2="1330.72" y2="74.7" xlink:href="#Gradiente_sem_nome_77"/><linearGradient id="Gradiente_sem_nome_77-3" x1="938.22" y1="219.45" x2="938.22" y2="73.26" xlink:href="#Gradiente_sem_nome_77"/><linearGradient id="Gradiente_sem_nome_77-4" x1="1224.94" y1="217.31" x2="1224.94" y2="74.9" xlink:href="#Gradiente_sem_nome_77"/><linearGradient id="Gradiente_sem_nome_77-5" x1="1225.27" y1="52.04" x2="1225.27" y2="24.4" xlink:href="#Gradiente_sem_nome_77"/><linearGradient id="Gradiente_sem_nome_77-6" x1="1118.16" y1="218.9" x2="1118.16" y2="73.4" xlink:href="#Gradiente_sem_nome_77"/><linearGradient id="Gradiente_sem_nome_77-7" x1="761.84" y1="41.35" x2="761.84" y2="0" xlink:href="#Gradiente_sem_nome_77"/><linearGradient id="Gradiente_sem_nome_77-8" x1="758.01" y1="217.02" x2="758.01" y2="74.61" xlink:href="#Gradiente_sem_nome_77"/></defs><g id="Camada_2" data-name="Camada 2"><g id="Camada_1-2" data-name="Camada 1"><path class="cls-1" d="M17.69,79.41l-3.08,1.17-.78-4.92L16,74,16.83,71l-2.38,1.35c-.51.75-1,1.5-1.52,2.26l-2.8.3C10,68.33,1.56,68.67,0,62.57L31.8,25.34l98.46,115.45,96-112.37c6.4,0,10.57,0,14.74,0,2.52,0,5-.31,7.54-.31q54.31,0,108.63,0c24.1.05,40.14,16,40.42,40,.06,5.26,0,10.51,0,16.52H356.82c-.34-5.31-.64-9.94-1-15.3H315.12c-17.64,0-35.27,0-52.9,0-7.7,0-12.74,4.81-13,12.5-.19,6.2,0,12.41,0,19.25,2.91.19,5.3.48,7.69.48q49.13,0,98.24,0c26.49,0,42.17,15.56,42.35,41.95.07,10.64.21,21.29.1,31.94-.28,25-15.07,40.92-40.24,41.38-35.57.64-71.16-.08-106.73.18-28.8.21-45.37-21.85-42.94-44.71.39-3.65.06-7.38.06-11.52h41v14.73c3.86.19,6.91.46,10,.46,29.6,0,59.2-.23,88.79.17,7.19.1,9.59-2.06,8.89-9a71.72,71.72,0,0,1,0-15c.81-7.2-1.35-9.7-9.15-9.59-31.48.46-63-.21-94.45.31-17.47.29-31.39-5.07-41.18-21.06L135.38,210l-1.5-1.93c.68-1.82,1.37-3.65,2.05-5.48l-1.89-.75q-1.9,4.21-3.82,8.42l.3-.35h-7.47l8.59-12.27-.43-.54-8.4,10.3c-4.76-6.32-5.41-13.11-12.34-14.42q.93-3.18,1.84-6.36l1.07-2.83-2.15,1.75c-2.71,1.71-5.67,4.77-7-1.26l1.69-2.09,1.86-1.91,1.76-2,2.08-3.75-3.31,2.55-1.77,1.81-1.69,2.18-1.84,2-2-5.8,1-2.8-2.28,1.63-5-3.1c.43-.84.86-1.69,1.28-2.54l-2.41,1.42c-4.63-4.8-7.41-9.91-6.75-12.38l3-2.87,2.74-4.37-1.3-.76-2.78,4-3,2.89a6.62,6.62,0,0,1-.72.54c-3.12-3.16-9.4-4.18-7.47-10.78l4.8-5.28-1.49-1.29-4.67,5.54-4,.92,1.77-7.25,1.38-2.34-2.56,1.08c-2.34,1.45-5.19,7.46-6.46-.71L68.93,136l1.8-2,1-2.94-2.3,1.64-1.71,2.07-3,2.74c-5.28-.37-3.09-3.42-2.17-6l1.8-4-3.12,2.83c-6.53,4.93-2.53-7.83-8-4.69-.53-7.21-10.93-8.62-9.92-16.73-3.68-.15-5.41-1.84-7.1-5.43s-5.86-6-9-9c.39-.85.78-1.7,1.16-2.56,1-1,1.92-2,2.82-3,0,0-.71-.69-1.09-1.06l-2.54,3.15-2.29,1.45-2.94-6.7,2.92-.71L27,83l1.25-2.6-2.59,1.25L24.2,84l-1.62,2.15C17,87.24,17.8,84.33,19.29,81l4.44-5.11L24,73.16l-1.55,1.56ZM100.93,166l.89-2.6-2,1.51-1.46,2.33ZM39.78,101.36,41.35,99l-2.55,1.36-1,2.67ZM14,64.46l.54-2.53-1.62,1.46-1.4,2.38ZM46.23,106l1.66-2.16.41-2.56-1.56,1.4-1.65,2.13-1.61,1.83Zm30,29.05-1.1,2.14c.49.22,1.28.74,1.42.61a10.89,10.89,0,0,0,1.33-2Zm6.25,15.87.93,1.09,3.53-3.35-.62-.75Zm-32.54-41L51,111.07l2.77-2.57a14.41,14.41,0,0,0-1.45-1.22C51.47,108.09,50.7,109,49.9,109.92ZM44.46,96.33c-.54-.24-1.11-.71-1.52-.6s-.83.75-1.23,1.16a7.53,7.53,0,0,0,2,.71C43.9,97.62,44.2,96.79,44.46,96.33ZM31.1,86.87c.59.38,1.37,1,1.48.93a14.2,14.2,0,0,0,1.74-2c-.52-.33-1.37-1.06-1.51-.94A11.85,11.85,0,0,0,31.1,86.87ZM67,123.75c-.5.66-1.2,1.24-1.37,1.94-.09.39.71,1,1.12,1.49A12.41,12.41,0,0,0,68.06,125C68.14,124.81,67.44,124.29,67,123.75Zm57.64,70.43c-.2-.21-.44-.62-.59-.59a5.87,5.87,0,0,0-1.22.57c.19.2.44.61.58.58A5.64,5.64,0,0,0,124.61,194.18Zm-2.37,3.9-.6-1.08c-.19.19-.55.42-.52.57a5.24,5.24,0,0,0,.54,1.12Z"/><path class="cls-2" d="M558.29,163.1l-39.78-46.89c-7.07-8.33-13.86-16.92-21.33-24.88-2.86-3-7.26-4.69-11-7-1.34,4-3.76,7.88-3.84,11.86-.53,26.59-.59,53.18-.74,79.78-.07,13.73,0,27.47,0,41.3H456.58V37.61c7.83,0,16.56-.4,25.22.2,3.62.25,8.19,1.65,10.45,4.18,11.82,13.25,23,27,34.48,40.63C535,92.42,543,102.37,551.42,112c5.24,6,9.78,5.43,14.73-.45,16.28-19.32,34.06-37.56,48.66-58,10.08-14.14,21.78-17.88,37.42-15.93,3.06.38,6.21.05,9.26.05V217.29H635a38.32,38.32,0,0,1-1-6.25q-.13-57.72-.12-115.44c0-1.87.23-3.9-.39-5.59-.9-2.45-2.45-6.55-3.76-6.57a11.13,11.13,0,0,0-7.69,3.69c-8.54,10.27-16.34,21.14-25,31.35C584.29,133.7,571,148.54,558.29,163.1Z"/><path class="cls-3" d="M1404.19,109.75c-6.87,0-13.15.36-19.36-.14-3.23-.27-7.15.26-8.73-4.91-.59-1.92-5.85-3.39-9-3.43-24.55-.3-49.11-.23-73.66-.18-6.51,0-9.76,3.6-9.91,10-.08,3.13-.21,6.28,0,9.39.66,9.44,3.21,12.2,12.74,12.34q36.82.52,73.67.48c22.69,0,34.33,11.49,34,33.91-.1,6.58-.26,13.15-.2,19.73.15,16.63-12.4,29.94-29.14,30.1-29.9.28-59.83,1-89.69-.13-11.61-.43-27.59-10.94-28-32.67,8,0,15.94,0,23.92,0,.84,0,2.36,0,2.44.27,3,10.89,12.18,7.16,18.87,7.29,21.71.42,43.43-.22,65.15-.17,8.11,0,11.5-3.75,11.14-11.49,0-.32,0-.63,0-.94.55-18.41-.77-19.85-19.11-19.92-22.67-.09-45.35.05-68-.11-20.51-.14-32.7-11-34-31.08-.6-9.28.23-18.74,1.31-28,1.68-14.44,15.78-25.69,30-25.38,27.07.61,54.17.78,81.23.07C1393.07,74.15,1406.9,89.68,1404.19,109.75Z"/><path class="cls-4" d="M844.18,73.37c10.1,0,19.23-.34,28.3.2,2.74.17,6.53,2.11,7.79,4.36,14.76,26.41,29.16,53,43.57,79.62,3,5.48,5.16,11.41,8.45,16.67,5,7.92,10.28,7.75,14.69-.32,8.84-16.16,17.38-32.49,26.12-48.71q12.21-22.71,24.59-45.35c1.89-3.49,4.26-5.38,8.88-5.06,8.44.57,16.94.16,25.69.16-13.62,24.35-27.42,48.65-40.86,73.15-12.31,22.43-24.15,45.12-36.47,67.55-1,1.78-4,3.14-6.25,3.37-4,.42-8.39-1.08-12.19-.12-9.39,2.36-13.55-3.1-17.15-9.93-7.23-13.74-14.13-27.65-21.66-41.22-12.42-22.38-25.23-44.54-37.87-66.8C854.62,91.81,849.45,82.67,844.18,73.37Z"/><path class="cls-5" d="M1237.76,217.31h-25.64V74.9h25.64Z"/><path class="cls-6" d="M1210.91,52V24.4h28.72V52Z"/><path class="cls-7" d="M1080.41,160.61c5.58.11,11.18-1.29,16.78-1.32,31.89-.14,63.78-.07,95.16-.07,0-17-.09-33.59,0-50.14.15-22.69-12.43-35.5-35.3-35.56-23.27-.06-46.56-.34-69.82.2-8.63.2-17.76,1-25.7,4.06-13.63,5.2-17.58,17.4-17.6,30.91,0,25.34.16,50.68.2,76,0,23.48,16,33.61,36.18,34.06,17.28.39,34.58-.16,51.88-.21,19.42-.06,38.85,0,59.12,0V192.09H1173.8c-29.25,0-58.5.19-87.75.07-12.24,0-14.85-3-15-15.12,0-2.19.1-4.38.06-6.57C1071,164.17,1073.19,160.47,1080.41,160.61ZM1071.58,112c.54-8.82,2.71-11,11.52-11.1,11.33-.12,22.66,0,34,0v.37c12.27,0,24.54.06,36.8,0,7,0,10.11,3,10.46,10.13,1,20.78.3,21.75-20.67,21.81-19.52.05-39,.15-58.54,0-12-.08-13.55-1.82-13.65-13.68C1071.47,117,1071.43,114.49,1071.58,112Z"/><path class="cls-8" d="M742.52,41.24c3.39-13.78,6.74-27.36,10.16-41.24h28.48c-3.15,12.33-6.5,24.55-9.3,36.88-.94,4.13-3,4.58-6.57,4.45C757.81,41.05,750.32,41.24,742.52,41.24Z"/><path class="cls-9" d="M831.65,103c-.1-15.51-15.24-28.18-30.87-28.29-13.83-.1-27.66,0-41.49,0v.3c-14.46,0-28.92.25-43.38-.06C700,74.53,683.73,88,684.35,106c1,28.1.4,56.26.81,84.38.05,3.53,1.56,7.29,3.24,10.5,6.41,12.28,17.67,16,30.61,16.05,26.08.1,52.17-.25,78.25.11,17,.23,31.17-10.15,32.14-27.07Q831.89,146.52,831.65,103Zm-40.49,89c-11.3.26-22.61.06-33.92.06v.19c-11.63,0-23.26.13-34.89,0-9-.13-12-2.84-12-11.8,0-22.82.38-45.63.51-68.45,0-7.32,3.39-10.94,10.87-10.86q35.35.33,70.7.51c7.75,0,11.24,3.37,11.22,11.41,0,21.88.54,43.75.64,65.63C804.32,189.78,802.44,191.68,791.16,191.93Z"/></g></g></svg>